<svg xmlns="http://www.w3.org/2000/svg" width="96" height="120" viewBox="0 0 96 105">
  <path fill="#000000" d="M0,0 L8.36974983,92.7030176 L45.9427372,103 L83.6141514,92.6875273 L92,0 L0,0 Z M76.4412154,86.7879609 L46.1565049,95.0738281 L46.1565049,95.1207012 L46.0774373,95.0971641 L45.9977584,95.1207012 L45.9977584,95.0738281 L15.7134554,86.7879609 L8.55641449,7.57794336 L83.5990715,7.57794336 L76.4412154,86.7879609 Z M60.13781,53.3310664 L58.8060922,68.0721367 L45.9743234,71.4912539 L45.9464052,71.4990996 L33.1221764,68.087627 L32.3019523,59.0113555 L20.7383213,59.0113555 L22.3512588,76.8665664 L45.9464052,83.3296152 L45.9586322,83.3296152 L45.9743234,83.3296152 L45.9977584,83.3217695 L69.5694699,76.8665664 L72.7323761,41.9620391 L30.7564668,41.9620391 L29.7067837,30.319418 L73.738246,30.319418 L73.7779835,30.319418 L74.808511,18.9505918 L17.1158857,18.9505918 L20.2233632,53.3308652 L60.13781,53.3308652 L60.13781,53.3310664 Z" opacity=".9" transform="translate(2 1)"/>
</svg>
